# xmcd CD database file
#
# Track frame offsets:
#	150
#	15011
#	28276
#	44008
#	57200
#	70599
#	82035
#	99732
#	114259
#	127352
#	140847
#	155679
#	170206
#	184731
#
# Disc length: 2646 seconds
#
# Revision: 0
# Processed by: cddbd v1.5.2PL0 Copyright (c) Steve Scherf et al.
# Submitted via: CDex 1.50beta10
#
DISCID=cb0a540e
DTITLE=所有歌星 - 校園民歌No2
DYEAR=1900
DGENRE=Country
TTITLE0=01水車-羅吉鎮•李碧華
TTITLE1=02迎著風迎著雨-蘇來
TTITLE2=03希望還能遇見你-蔡琴
TTITLE3=04年輕人的心聲-潘安邦
TTITLE4=05你那好冷的小心-銀霞
TTITLE5=06夢的衣裳-李碧華
TTITLE6=07你的眼神-蔡琴
TTITLE7=08娃娃的故事-陳淑華
TTITLE8=09大海邊-江志棋
TTITLE9=10故鄉-潘安邦
TTITLE10=11青春湖畔-蔡琴
TTITLE11=12別了彩雲-陳宏銘
TTITLE12=13小秘密-銀霞
TTITLE13=14送別-蔡琴
EXTD=
EXTT0=
EXTT1=
EXTT2=
EXTT3=
EXTT4=
EXTT5=
EXTT6=
EXTT7=
EXTT8=
EXTT9=
EXTT10=
EXTT11=
EXTT12=
EXTT13=
PLAYORDER=
